<svg width="83" height="94" viewBox="0 0 83 94" fill="none" xmlns="http://www.w3.org/2000/svg">
<path d="M48.384 93.056C38.0587 93.056 29.2693 91.136 22.016 87.296C14.848 83.456 9.38667 78.08 5.632 71.168C1.87733 64.256 0 56.192 0 46.976C0 37.4187 1.96267 29.1413 5.888 22.144C9.89867 15.0613 15.616 9.6 23.04 5.76C30.464 1.92 39.424 0 49.92 0C54.1013 0 58.1973 0.384 62.208 1.152C66.2187 1.83466 69.888 2.90133 73.216 4.352C76.6293 5.71733 79.5307 7.33867 81.92 9.216L74.752 27.392C70.7413 24.832 66.7733 22.9973 62.848 21.888C58.9227 20.6933 54.656 20.096 50.048 20.096C41.4293 20.096 34.9867 22.4 30.72 27.008C26.5387 31.5307 24.448 38.1867 24.448 46.976C24.448 55.68 26.5813 62.2507 30.848 66.688C35.1147 71.1253 41.4293 73.344 49.792 73.344C52.352 73.344 55.1253 73.088 58.112 72.576C61.184 72.064 64.256 71.3387 67.328 70.4L62.976 79.232V57.344H44.928V40.832H82.176V86.144C79.0187 87.5947 75.5627 88.832 71.808 89.856C68.1387 90.88 64.2987 91.648 60.288 92.16C56.3627 92.7573 52.3947 93.056 48.384 93.056Z" fill="#4497b5"/>
</svg>
